<svg xmlns="http://www.w3.org/2000/svg" viewBox="0 0 512 512" width="100%" height="100%">
  <circle cx="256" cy="256" r="240" fill="#111827" stroke="#C4B5FD" stroke-width="6" opacity="0.9"/>
  <path d="M 161 320 C 201 380, 351 380, 371 280" stroke="#EC4899" stroke-width="14" stroke-linecap="round" fill="none"/>
  <path d="M 251 130 C 251 130, 331 130, 331 130 L 331 160 C 311 160, 301 170, 301 195 L 301 315 C 301 375, 211 385, 181 330 C 166 300, 189 275, 206 275 C 226 275, 231 290, 221 305 C 211 320, 199 322, 206 332 C 213 342, 241 355, 266 335 C 286 315, 273 260, 273 195 C 273 170, 266 160, 241 160 Z" fill="#8B5CF6"/>
</svg>
